<svg xmlns="http://www.w3.org/2000/svg" xmlns:xlink="http://www.w3.org/1999/xlink" x="0px" y="0px" viewBox="0 0 500 500" enable-background="new 0 0 500 500">
  <linearGradient id="a" gradientUnits="userSpaceOnUse" x1="301.8687" y1="-15.8142" x2="360.6124" y2="-15.8142" gradientTransform="matrix(1 0 0 -1 -95.3203 159.1588)">
    <stop offset="0.5054" stop-color="#0087F2"/>
    <stop offset="0.9624" stop-color="#030070"/>
  </linearGradient>
  <path d="M206.5 175.5c1.5-3.6 3.1-7.1 4.6-10.7 2.4-5.8 4.8-11.7 7.2-17.5l.7-1.4c4.4 1.7 8.8 3.3 13.2 5 7.9 3.2 15.5 7.1 22.5 12.1 6.4 4.6 10.4 10.6 10.6 18.6.2 5.8-2 10.9-5.2 15.6-1.6 2.4-3.5 4.5-5.3 6.8-.1-.1-.3-.2-.4-.3.2-1.2.4-2.3.5-3.5.7-6.2-1.8-11.1-6.7-14.8-4.2-3.2-9.1-5-14.2-6.4-9-2.4-18.1-3.2-27.4-3.2-.1-.1-.1-.2-.1-.3z" fill="url(#a)"/>
  <linearGradient id="b" gradientUnits="userSpaceOnUse" x1="387.1809" y1="-95.5907" x2="354.8965" y2="-39.6722" gradientTransform="matrix(1 0 0 -1 -95.3203 159.1588)">
    <stop offset="0" stop-color="#030070"/>
    <stop offset="1" stop-color="#0087F2"/>
  </linearGradient>
  <path d="M252.9 262.8c-2.9-.5-5.8-.8-8.7-1.4-10.9-2.2-20.9-6.6-29.7-13.4-.4-.3-1.6-1.4-1.8-1.9-2.4-5.7-3.8-10.9-6.2-16.8 7.3.6 13.5 1.7 19.6-.9 2.7 3.9 5.1 6.4 7.6 10 .3.4.7.8 1 1.2 3.2 3.8 7 6.2 12.2 6.7 13.3 1.3 26.3.6 38.8-4.4 11.4-4.6 20-12.5 26.3-23.1 4.3-7.3 8.2-14.8 10.2-23.1.9-3.6 1.3-7.3 2-10.9.1-.6.2-1.1.4-1.7 1.1 5.7 1.2 11.4.8 17.1-.9 14-5.7 26.7-14.2 37.8-9.5 12.3-22.1 19.7-37.1 23.2-3 .7-6.1 1-9.2 1.5-3.9.1-7.9.1-12 .1z" fill="url(#b)"/>
  <linearGradient id="c" gradientUnits="userSpaceOnUse" x1="346.1498" y1="-41.5018" x2="311.4542" y2="18.5928" gradientTransform="matrix(1 0 0 -1 -95.3203 159.1588)">
    <stop offset="0" stop-color="#030070"/>
    <stop offset="1" stop-color="#0087F2"/>
  </linearGradient>
  <path d="M188.9 194.6c.5-3.5.7-7.1 1.4-10.6 3.8-18.6 12.5-34.2 28.7-44.9 9.5-6.3 20-9.6 31.3-10.6 9-.8 17.8-.2 26.6 1.7.7.1 1.3.3 1.7.4-24.4-2-46.4 3-61 25-14 21.1-15.4 43.3-3.3 66.1-3.8-.4-7.5-.7-11.2-1.1-2.7-.3-5.3-.6-8-.8-1.2-.1-2-.6-2.4-1.6-1-3.2-2.1-6.5-2.8-9.8-.6-2.8-.7-5.7-1.1-8.6.1-1.7.1-3.5.1-5.2z" fill="url(#c)"/>
  <linearGradient id="d" gradientUnits="userSpaceOnUse" x1="297.8218" y1="-90.1059" x2="419.5863" y2="-19.8052" gradientTransform="matrix(1 0 0 -1 -95.3203 159.1588)">
    <stop offset="0.1183" stop-color="#030070"/>
    <stop offset="1" stop-color="#0087F2"/>
  </linearGradient>
  <path d="M216 246.9c-3.2-.3-6.3-.6-9.5-1.1-2.3-.3-4.6-.9-6.9-1.5 14.4-.4 24.6-8.6 33.7-18.6 2.6-2.8 5.3-5.6 7.9-8.5 3.1-3.3 7-4.2 11.3-3.6 4.5.6 8.2-.7 11.6-3.4 5.9-4.5 10.5-10 14-16.4 2.7-5.1 5-10.5 7.4-15.8.5-1.1.9-1.4 2.1-1.3 4.8.7 9.7 1.2 14.5 1.7.5.1 1.3-.4 1.5-.8.9-1.6 1.6-3.2 2.4-4.9 5.4.8 10.7 1.6 16 2.4v.3c-.3.5-.7 1-1 1.6-8.5 15.4-18.8 29.5-31.4 41.8-15.8 15.5-34.1 25.5-56.6 27-3.4.2-6.8.6-10.2 1-2.2.1-4.5.1-6.8.1z" fill="url(#d)"/>
  <path d="M305.4 149.8c2.2.3 4.3.6 6.7.9-.3 1.8-.5 3.5-.8 5.4-3.1-.3-6-.5-8.9-.8.3-2 .6-3.8.9-5.6.7.1 1.4.1 2.1.1z" fill="#189CE1"/>
  <path d="M289.1 174.5c.5-1.9.9-3.7 1.4-5.6 3.5.4 6.9.7 10.4 1.1-.3 2-.7 3.8-1 5.9-3.6-.5-7.2-.9-10.8-1.4z" fill="#189CE1"/>
  <path d="M293.1 155c2.9.3 5.6.5 8.5.8-.3 1.9-.5 3.6-.8 5.5-3.1-.3-6-.5-9-.8.5-1.9.9-3.6 1.3-5.5z" fill="#189CE1"/>
  <path d="M302.5 162.7c2.9.3 5.6.5 8.5.8-.3 1.9-.5 3.6-.8 5.5-3.1-.3-6-.5-9-.8.5-1.9.9-3.7 1.3-5.5z" fill="#189CE1"/>
  <linearGradient id="e" gradientUnits="userSpaceOnUse" x1="269.6569" y1="-61.8142" x2="331.8862" y2="-61.8142" gradientTransform="matrix(1 0 0 -1 -95.3203 159.1588)">
    <stop offset="0" stop-color="#030A70"/>
    <stop offset="0.9032" stop-color="#0094D4"/>
  </linearGradient>
  <path d="M174.3 218.8c-.1-4.2 2.2-10.2 4.3-12.9 2.1-3 4.4-5.8 6.9-8.5-1.2 4.4-2 8.8-1.5 13.3.6 5.4 2.9 10 7.7 12.5 11 5.7 22.7 7.8 34.9 4.5 3.2-.9 6-2 9.8-5.2-.2.3-1.3 1.6-1.5 1.9-6.3 7.2-12.6 14-21.7 17.5-2.8 1.1-5.5 2-8.5 2.4-1.6.2-3.2.2-4.8.2-5.8-1.6-11.8-4.7-16.5-8.4-3.9-3.1-9.4-10.2-9.1-17.3z" fill="url(#e)"/>
  <g>
    <path d="M128.7 335.8v-53.3h52.1v44.2c.2 6.2-3 9.2-9.6 9.1H167v-5.6h2c2.1.2 3.1-.9 2.9-3.2v-38.3h-34.4v47.2h-8.8v-.1zm25.8-7.4c-3.1-3.6-5.7-7-7.9-10.3-1.6 2.9-4.2 6.4-7.6 10.3V321c2-2.9 3.5-5.7 4.7-8.3-2.3-4.9-4-11.9-5.2-21.1h5.9c0 .3.1.9.2 1.7.7 5.2 1.3 8.8 2 10.8 1-3.4 1.8-7.5 2.5-12.3h5.6c-1.1 8.8-2.9 15.7-5.2 20.6.2.3.5.9 1 1.7.8 1.6 2.1 3.9 3.9 6.9v7.4h.1zm1 0V321c2-2.9 3.5-5.8 4.7-8.6-2-4.9-3.6-11.8-4.9-20.6h5.4c.8 5.1 1.6 9.3 2.5 12.5.8-4.4 1.6-8.6 2.2-12.5h5.6c-1.1 8.7-2.9 15.6-5.2 20.6 1.1 2.6 2.7 5.5 4.7 8.6v7.1c-2.8-2.9-5.2-6.3-7.4-10.1-1.7 3.1-4.2 6.5-7.6 10.4z" fill="#123E9B"/>
    <path d="M190.6 298.2v-6.6h21.6v-11.5H223v11.5h21.6v6.6h-21.4c1.8 14.4 9.3 25.1 22.6 32.2v5.9c-14.2-5.9-23.6-13.8-28-23.8-1.8 3.1-3.9 6.1-6.4 8.8h6.6c1.8 3.8 3.1 7.4 3.9 10.8h-8.1c-.7-2.8-1.7-6.1-3.2-9.8-4.6 5.1-11.7 9.7-21.4 14v-5.9c14.1-8.3 21.6-19.1 22.6-32.2h-21.2z" fill="#123E9B"/>
    <path d="M252.7 288.2v-5.9H265c2.9 0 6.5-.5 10.6-1.5v6.1c-2.3.7-4.7 1.1-7.1 1.2v7.1h6.6v5.9h-6.6c1.6 4.6 3.8 8.7 6.4 12.3v8.3c-2.6-2.8-4.7-5.5-6.4-8.1v22.6h-8.3v-19.9c-2.1 3.8-5 7.5-8.6 11.1v-7.9c3.9-6.4 6.6-12.5 8.1-18.4h-7.4v-5.9h7.9v-7.1l-7.5.1zm23.3 33.9V316h17.7v-35.9h9.1V316h6.4v6.1h-6.4v14.2h-9.1v-14.2H276zm14.8-10.8c-4.9-3.1-9.7-5-14.2-5.6V299c5.2.5 10 1.8 14.2 3.9v8.4zm1.2-15.5c-4.4-2.3-9-3.9-13.8-4.9v-6.4c5.6.3 10.2 1.5 13.8 3.4v7.9z" fill="#123E9B"/>
    <path d="M315.1 293.6v-5.9h5.4v-7.6h8.8v7.6h4.7v5.9h-4.7v11.5c1.5-.3 3.1-.8 4.9-1.5v6.1c-1.8.8-3.4 1.5-4.9 2v16.5c0 5.2-2.6 7.9-7.9 7.9H316v-5.6h2c1.6 0 2.5-.9 2.5-2.7V314c-1.6.5-3.6.8-5.9 1v-7.4c.7 0 1.6-.1 2.9-.2 1.3 0 2.3-.1 2.9-.2v-13.5l-5.3-.1zm20.4-1.3v-5.9h12.3v-6.6h9.6v6.6h13.8v5.9h-13.8v7.9h12.3v5.9c-2.3 7.7-5.8 13.8-10.6 18.4 3.4 2.3 7.5 4.3 12.3 5.9v5.9c-7-1.8-13.3-4.2-18.7-7.1-4.9 2.5-11.4 4.9-19.4 7.4V331c5.1-1.6 9.6-3.8 13.5-6.4-4.1-3.9-7.5-9.2-10.3-16h9.3c2 4.1 4.3 7.6 7.1 10.6 2.9-3.4 5.4-7.8 7.4-13H336v-5.9h11.8v-7.9l-12.3-.1z" fill="#123E9B"/>
  </g>
  <g>
    <path d="M177.6 362.7l-3.2-14h2.7l2.2 11.2 2.6-11.2h3.1l2.7 11.2 2.1-11.2h2.8l-3.3 14h-3.1l-2.7-10.7-2.7 10.7h-3.2z" fill="#123E9B" stroke="#FFF" stroke-width="0.481" stroke-miterlimit="10"/>
    <path d="M191.5 362.7l5.5-14h3.2l5.4 14h-2.8l-1.3-3.5h-5.8l-1.3 3.5h-2.9zm7-11.5l-2.2 6.3h4.5l-2.3-6.3z" fill="#123E9B" stroke="#FFF" stroke-width="0.481" stroke-miterlimit="10"/>
    <path d="M206.2 362.7v-14h2.7l6.8 10.3v-10.3h2.7v14h-2.6l-6.9-10.1v10.1h-2.7z" fill="#123E9B" stroke="#FFF" stroke-width="0.481" stroke-miterlimit="10"/>
    <path d="M232.7 352.6h-2.8c-.6-1.5-1.8-2.4-3.5-2.4-2.7.2-4 2-4.1 5.5.1 3.6 1.6 5.4 4.4 5.6 1.8 0 3-.7 3.6-2.2v-2.7H226v-1.7h6.8v5.2c-1 2-3 2.9-6.1 2.9-4.6-.1-6.9-2.6-7.2-7.2.2-4.6 2.5-7 6.9-7.2 3.2.2 5.4 1.5 6.3 4.2z" fill="#123E9B" stroke="#FFF" stroke-width="0.481" stroke-miterlimit="10"/>
    <path d="M232.9 350.4v-1.7H245v1.7h-4.8v12.3h-2.7v-12.3h-4.6z" fill="#123E9B" stroke="#FFF" stroke-width="0.481" stroke-miterlimit="10"/>
    <path d="M243.8 362.7l5.5-14h3.2l5.4 14h-2.8l-1.3-3.5H248l-1.3 3.5h-2.9zm7-11.5l-2.2 6.3h4.5l-2.3-6.3z" fill="#123E9B" stroke="#FFF" stroke-width="0.481" stroke-miterlimit="10"/>
    <path d="M258.4 362.7v-14h2.7v14h-2.7z" fill="#123E9B" stroke="#FFF" stroke-width="0.481" stroke-miterlimit="10"/>
    <path d="M262.6 356.6v-1.8h8.9v1.8h-8.9z" fill="#123E9B" stroke="#FFF" stroke-width="0.481" stroke-miterlimit="10"/>
    <path d="M270.7 350.4v-1.7h12.1v1.7h-4.7v12.3h-2.7v-12.3h-4.7z" fill="#123E9B" stroke="#FFF" stroke-width="0.481" stroke-miterlimit="10"/>
    <path d="M284 362.7v-14h10.8v1.7h-8.1v4.3h7.6v1.7h-7.6v4.7h8.1v1.6H284z" fill="#123E9B" stroke="#FFF" stroke-width="0.481" stroke-miterlimit="10"/>
    <path d="M308.7 353.1H306c-.5-1.8-1.6-2.7-3.2-2.8-2.6.1-3.9 2-4 5.7.1 3.4 1.7 5.3 4.6 5.5 2 .1 3.7-1.1 5.2-3.3v2.3c-1.2 1.8-3.2 2.6-5.8 2.6-4.3-.2-6.5-2.6-6.7-7.2.2-4.6 2.5-6.9 6.7-7.2 3.1-.1 5.2 1.4 5.9 4.4z" fill="#123E9B" stroke="#FFF" stroke-width="0.481" stroke-miterlimit="10"/>
    <path d="M310.5 362.7v-14h2.7v5.8h6.8v-5.8h2.7v14H320v-6.4h-6.8v6.4h-2.7z" fill="#123E9B" stroke="#FFF" stroke-width="0.481" stroke-miterlimit="10"/>
    <line x1="165.9" y1="354.9" x2="137.7" y2="354.9" fill="#123E9B" stroke="#123E9B" stroke-miterlimit="10"/>
    <line x1="362.3" y1="354.9" x2="334.1" y2="354.9" fill="#123E9B" stroke="#123E9B" stroke-miterlimit="10"/>
  </g>
</svg>